<mxfile host="app.diagrams.net" modified="2023-11-12T17:29:23.162Z" agent="Mozilla/5.0 (X11; Linux x86_64; rv:109.0) Gecko/20100101 Firefox/119.0" etag="caPi9PDAYbecCw8jEFe-" version="22.1.0" type="device">
  <diagram name="Page-1" id="HcEg8pD3V7-OboTiJlsW">
    <mxGraphModel dx="790" dy="430" grid="1" gridSize="10" guides="1" tooltips="1" connect="1" arrows="1" fold="1" page="1" pageScale="1" pageWidth="850" pageHeight="1100" math="0" shadow="0">
      <root>
        <mxCell id="0" />
        <mxCell id="1" parent="0" />
        <mxCell id="OswK609bfgFUA2K_-Q1M-1" value="" style="rounded=0;whiteSpace=wrap;html=1;fontColor=default;fillColor=none;fontStyle=0" vertex="1" parent="1">
          <mxGeometry x="60" y="5" width="530" height="375" as="geometry" />
        </mxCell>
        <mxCell id="OswK609bfgFUA2K_-Q1M-2" value="clk" style="endArrow=classic;html=1;rounded=0;labelPosition=left;verticalLabelPosition=top;align=right;verticalAlign=bottom;labelBackgroundColor=none;fontStyle=0" edge="1" parent="1">
          <mxGeometry width="50" height="50" relative="1" as="geometry">
            <mxPoint x="20" y="160" as="sourcePoint" />
            <mxPoint x="60" y="160" as="targetPoint" />
          </mxGeometry>
        </mxCell>
        <mxCell id="OswK609bfgFUA2K_-Q1M-3" value="button" style="endArrow=classic;html=1;rounded=0;labelPosition=left;verticalLabelPosition=top;align=right;verticalAlign=bottom;labelBackgroundColor=none;fontStyle=0" edge="1" parent="1">
          <mxGeometry width="50" height="50" relative="1" as="geometry">
            <mxPoint x="20" y="50" as="sourcePoint" />
            <mxPoint x="60" y="50" as="targetPoint" />
          </mxGeometry>
        </mxCell>
        <mxCell id="OswK609bfgFUA2K_-Q1M-4" value="button clean" style="endArrow=classic;html=1;rounded=0;labelPosition=center;verticalLabelPosition=top;align=center;verticalAlign=bottom;labelBackgroundColor=none;fontStyle=0" edge="1" parent="1">
          <mxGeometry width="50" height="50" relative="1" as="geometry">
            <mxPoint x="590" y="189.83" as="sourcePoint" />
            <mxPoint x="680" y="189.83" as="targetPoint" />
          </mxGeometry>
        </mxCell>
        <mxCell id="OswK609bfgFUA2K_-Q1M-8" value="" style="rounded=0;whiteSpace=wrap;html=1;fillColor=none;fontStyle=0" vertex="1" parent="1">
          <mxGeometry x="120" y="20" width="80" height="120" as="geometry" />
        </mxCell>
        <mxCell id="OswK609bfgFUA2K_-Q1M-9" value="" style="triangle;whiteSpace=wrap;html=1;rotation=-90;fontStyle=0" vertex="1" parent="1">
          <mxGeometry x="130" y="120" width="20" height="20" as="geometry" />
        </mxCell>
        <mxCell id="OswK609bfgFUA2K_-Q1M-11" value="" style="rounded=0;whiteSpace=wrap;html=1;fillColor=none;fontStyle=0" vertex="1" parent="1">
          <mxGeometry x="240" y="20" width="80" height="120" as="geometry" />
        </mxCell>
        <mxCell id="OswK609bfgFUA2K_-Q1M-12" value="" style="triangle;whiteSpace=wrap;html=1;rotation=-90;fontStyle=0" vertex="1" parent="1">
          <mxGeometry x="250" y="120" width="20" height="20" as="geometry" />
        </mxCell>
        <mxCell id="OswK609bfgFUA2K_-Q1M-14" value="" style="endArrow=none;html=1;rounded=0;fontStyle=0" edge="1" parent="1">
          <mxGeometry width="50" height="50" relative="1" as="geometry">
            <mxPoint x="60" y="160" as="sourcePoint" />
            <mxPoint x="260" y="160" as="targetPoint" />
          </mxGeometry>
        </mxCell>
        <mxCell id="OswK609bfgFUA2K_-Q1M-15" value="" style="endArrow=classic;html=1;rounded=0;fontStyle=0" edge="1" parent="1">
          <mxGeometry width="50" height="50" relative="1" as="geometry">
            <mxPoint x="139.83" y="160" as="sourcePoint" />
            <mxPoint x="139.83" y="140" as="targetPoint" />
          </mxGeometry>
        </mxCell>
        <mxCell id="OswK609bfgFUA2K_-Q1M-16" value="" style="endArrow=classic;html=1;rounded=0;fontStyle=0" edge="1" parent="1">
          <mxGeometry width="50" height="50" relative="1" as="geometry">
            <mxPoint x="259.83" y="160" as="sourcePoint" />
            <mxPoint x="259.83" y="140" as="targetPoint" />
          </mxGeometry>
        </mxCell>
        <mxCell id="OswK609bfgFUA2K_-Q1M-18" value="" style="endArrow=classic;html=1;rounded=0;entryX=0;entryY=0.25;entryDx=0;entryDy=0;fontStyle=0" edge="1" parent="1" target="OswK609bfgFUA2K_-Q1M-8">
          <mxGeometry width="50" height="50" relative="1" as="geometry">
            <mxPoint x="60" y="50" as="sourcePoint" />
            <mxPoint x="110" as="targetPoint" />
          </mxGeometry>
        </mxCell>
        <mxCell id="OswK609bfgFUA2K_-Q1M-19" value="" style="endArrow=classic;html=1;rounded=0;fontStyle=0" edge="1" parent="1">
          <mxGeometry width="50" height="50" relative="1" as="geometry">
            <mxPoint x="200" y="50" as="sourcePoint" />
            <mxPoint x="240" y="50" as="targetPoint" />
          </mxGeometry>
        </mxCell>
        <mxCell id="OswK609bfgFUA2K_-Q1M-20" value="&lt;span&gt;button_sync&lt;/span&gt;" style="endArrow=classic;html=1;rounded=0;labelBackgroundColor=none;labelPosition=center;verticalLabelPosition=top;align=center;verticalAlign=bottom;fontStyle=0" edge="1" parent="1">
          <mxGeometry width="50" height="50" relative="1" as="geometry">
            <mxPoint x="320" y="50" as="sourcePoint" />
            <mxPoint x="390" y="50" as="targetPoint" />
          </mxGeometry>
        </mxCell>
        <mxCell id="OswK609bfgFUA2K_-Q1M-21" value="" style="rounded=0;whiteSpace=wrap;html=1;fillColor=none;fontStyle=0" vertex="1" parent="1">
          <mxGeometry x="210" y="230" width="80" height="120" as="geometry" />
        </mxCell>
        <mxCell id="OswK609bfgFUA2K_-Q1M-22" value="" style="triangle;whiteSpace=wrap;html=1;rotation=-90;fontStyle=0" vertex="1" parent="1">
          <mxGeometry x="220" y="330" width="20" height="20" as="geometry" />
        </mxCell>
        <mxCell id="OswK609bfgFUA2K_-Q1M-23" value="reset" style="text;html=1;strokeColor=none;fillColor=none;align=center;verticalAlign=middle;whiteSpace=wrap;rounded=0;fontStyle=0" vertex="1" parent="1">
          <mxGeometry x="240" y="325" width="60" height="30" as="geometry" />
        </mxCell>
        <mxCell id="OswK609bfgFUA2K_-Q1M-24" value="&lt;div&gt;counter&lt;/div&gt;&lt;div&gt;[3:0]&lt;/div&gt;" style="endArrow=classic;html=1;rounded=0;labelBackgroundColor=none;fontStyle=0" edge="1" parent="1">
          <mxGeometry width="50" height="50" relative="1" as="geometry">
            <mxPoint x="290" y="270" as="sourcePoint" />
            <mxPoint x="410" y="270" as="targetPoint" />
          </mxGeometry>
        </mxCell>
        <mxCell id="OswK609bfgFUA2K_-Q1M-25" value="" style="endArrow=none;html=1;rounded=0;fontStyle=0" edge="1" parent="1">
          <mxGeometry width="50" height="50" relative="1" as="geometry">
            <mxPoint x="130" y="280" as="sourcePoint" />
            <mxPoint x="130" y="230" as="targetPoint" />
          </mxGeometry>
        </mxCell>
        <mxCell id="OswK609bfgFUA2K_-Q1M-26" value="" style="endArrow=none;html=1;rounded=0;fontStyle=0" edge="1" parent="1">
          <mxGeometry width="50" height="50" relative="1" as="geometry">
            <mxPoint x="160" y="270" as="sourcePoint" />
            <mxPoint x="160" y="240" as="targetPoint" />
          </mxGeometry>
        </mxCell>
        <mxCell id="OswK609bfgFUA2K_-Q1M-27" value="" style="endArrow=none;html=1;rounded=0;fontStyle=0" edge="1" parent="1">
          <mxGeometry width="50" height="50" relative="1" as="geometry">
            <mxPoint x="130" y="280" as="sourcePoint" />
            <mxPoint x="160" y="270" as="targetPoint" />
          </mxGeometry>
        </mxCell>
        <mxCell id="OswK609bfgFUA2K_-Q1M-28" value="" style="endArrow=none;html=1;rounded=0;fontStyle=0" edge="1" parent="1">
          <mxGeometry width="50" height="50" relative="1" as="geometry">
            <mxPoint x="130" y="230" as="sourcePoint" />
            <mxPoint x="160" y="240" as="targetPoint" />
          </mxGeometry>
        </mxCell>
        <mxCell id="OswK609bfgFUA2K_-Q1M-29" value="&lt;div&gt;+&lt;/div&gt;" style="text;html=1;align=center;verticalAlign=middle;resizable=0;points=[];autosize=1;strokeColor=none;fillColor=none;fontStyle=0" vertex="1" parent="1">
          <mxGeometry x="130" y="240" width="30" height="30" as="geometry" />
        </mxCell>
        <mxCell id="OswK609bfgFUA2K_-Q1M-30" value="&lt;div align=&quot;center&quot;&gt;-1&lt;/div&gt;" style="endArrow=classic;html=1;rounded=0;align=right;labelBackgroundColor=none;labelPosition=left;verticalLabelPosition=bottom;verticalAlign=top;fontStyle=0" edge="1" parent="1">
          <mxGeometry width="50" height="50" relative="1" as="geometry">
            <mxPoint x="80" y="270" as="sourcePoint" />
            <mxPoint x="130" y="270" as="targetPoint" />
          </mxGeometry>
        </mxCell>
        <mxCell id="OswK609bfgFUA2K_-Q1M-31" value="" style="endArrow=none;html=1;rounded=0;fontStyle=0" edge="1" parent="1">
          <mxGeometry width="50" height="50" relative="1" as="geometry">
            <mxPoint x="410" y="270" as="sourcePoint" />
            <mxPoint x="410" y="210" as="targetPoint" />
          </mxGeometry>
        </mxCell>
        <mxCell id="OswK609bfgFUA2K_-Q1M-32" value="" style="endArrow=none;html=1;rounded=0;fontStyle=0" edge="1" parent="1">
          <mxGeometry width="50" height="50" relative="1" as="geometry">
            <mxPoint x="80" y="210" as="sourcePoint" />
            <mxPoint x="410" y="210" as="targetPoint" />
          </mxGeometry>
        </mxCell>
        <mxCell id="OswK609bfgFUA2K_-Q1M-33" value="" style="endArrow=classic;html=1;rounded=0;fontStyle=0" edge="1" parent="1">
          <mxGeometry width="50" height="50" relative="1" as="geometry">
            <mxPoint x="80" y="240" as="sourcePoint" />
            <mxPoint x="130" y="240" as="targetPoint" />
          </mxGeometry>
        </mxCell>
        <mxCell id="OswK609bfgFUA2K_-Q1M-34" value="" style="endArrow=none;html=1;rounded=0;fontStyle=0" edge="1" parent="1">
          <mxGeometry width="50" height="50" relative="1" as="geometry">
            <mxPoint x="80" y="240" as="sourcePoint" />
            <mxPoint x="80" y="210" as="targetPoint" />
          </mxGeometry>
        </mxCell>
        <mxCell id="OswK609bfgFUA2K_-Q1M-35" value="" style="endArrow=classic;html=1;rounded=0;entryX=0;entryY=0.25;entryDx=0;entryDy=0;fontStyle=0" edge="1" parent="1">
          <mxGeometry width="50" height="50" relative="1" as="geometry">
            <mxPoint x="160" y="254.70999999999998" as="sourcePoint" />
            <mxPoint x="210" y="254.70999999999998" as="targetPoint" />
            <Array as="points">
              <mxPoint x="180" y="254.70999999999998" />
            </Array>
          </mxGeometry>
        </mxCell>
        <mxCell id="OswK609bfgFUA2K_-Q1M-55" value="" style="endArrow=none;html=1;rounded=0;fontStyle=0" edge="1" parent="1">
          <mxGeometry width="50" height="50" relative="1" as="geometry">
            <mxPoint x="70" y="370" as="sourcePoint" />
            <mxPoint x="70" y="160" as="targetPoint" />
          </mxGeometry>
        </mxCell>
        <mxCell id="OswK609bfgFUA2K_-Q1M-56" value="" style="endArrow=none;html=1;rounded=0;fontStyle=0" edge="1" parent="1">
          <mxGeometry width="50" height="50" relative="1" as="geometry">
            <mxPoint x="70" y="370" as="sourcePoint" />
            <mxPoint x="230" y="370" as="targetPoint" />
          </mxGeometry>
        </mxCell>
        <mxCell id="OswK609bfgFUA2K_-Q1M-57" value="" style="endArrow=classic;html=1;rounded=0;fontStyle=0" edge="1" parent="1">
          <mxGeometry width="50" height="50" relative="1" as="geometry">
            <mxPoint x="229.8" y="370" as="sourcePoint" />
            <mxPoint x="229.8" y="350" as="targetPoint" />
          </mxGeometry>
        </mxCell>
        <mxCell id="OswK609bfgFUA2K_-Q1M-59" value="" style="ellipse;whiteSpace=wrap;html=1;aspect=fixed;fontStyle=0" vertex="1" parent="1">
          <mxGeometry x="410" y="45" width="10" height="10" as="geometry" />
        </mxCell>
        <mxCell id="OswK609bfgFUA2K_-Q1M-61" value="" style="endArrow=none;html=1;rounded=0;fontStyle=0" edge="1" parent="1">
          <mxGeometry width="50" height="50" relative="1" as="geometry">
            <mxPoint x="270" y="370" as="sourcePoint" />
            <mxPoint x="300" y="370" as="targetPoint" />
          </mxGeometry>
        </mxCell>
        <mxCell id="OswK609bfgFUA2K_-Q1M-62" value="" style="endArrow=classic;html=1;rounded=0;fontStyle=0" edge="1" parent="1">
          <mxGeometry width="50" height="50" relative="1" as="geometry">
            <mxPoint x="270" y="370" as="sourcePoint" />
            <mxPoint x="270" y="350" as="targetPoint" />
          </mxGeometry>
        </mxCell>
        <mxCell id="OswK609bfgFUA2K_-Q1M-63" value="" style="endArrow=none;html=1;rounded=0;fontStyle=0" edge="1" parent="1">
          <mxGeometry width="50" height="50" relative="1" as="geometry">
            <mxPoint x="300" y="370" as="sourcePoint" />
            <mxPoint x="300" y="290" as="targetPoint" />
          </mxGeometry>
        </mxCell>
        <mxCell id="OswK609bfgFUA2K_-Q1M-64" value="" style="endArrow=none;dashed=1;html=1;dashPattern=1 3;strokeWidth=2;rounded=0;fontStyle=0" edge="1" parent="1">
          <mxGeometry width="50" height="50" relative="1" as="geometry">
            <mxPoint x="300" y="290" as="sourcePoint" />
            <mxPoint x="300" y="250" as="targetPoint" />
          </mxGeometry>
        </mxCell>
        <mxCell id="OswK609bfgFUA2K_-Q1M-66" value="" style="endArrow=none;html=1;rounded=0;fontStyle=0" edge="1" parent="1">
          <mxGeometry width="50" height="50" relative="1" as="geometry">
            <mxPoint x="300" y="180" as="sourcePoint" />
            <mxPoint x="450" y="180" as="targetPoint" />
          </mxGeometry>
        </mxCell>
        <mxCell id="OswK609bfgFUA2K_-Q1M-67" value="" style="endArrow=none;html=1;rounded=0;fontStyle=0" edge="1" parent="1">
          <mxGeometry width="50" height="50" relative="1" as="geometry">
            <mxPoint x="450" y="180" as="sourcePoint" />
            <mxPoint x="450" y="50" as="targetPoint" />
          </mxGeometry>
        </mxCell>
        <mxCell id="OswK609bfgFUA2K_-Q1M-68" value="" style="endArrow=none;html=1;rounded=0;fontStyle=0;exitX=1;exitY=0.5;exitDx=0;exitDy=0;" edge="1" parent="1" source="OswK609bfgFUA2K_-Q1M-59">
          <mxGeometry width="50" height="50" relative="1" as="geometry">
            <mxPoint x="425" y="49.83" as="sourcePoint" />
            <mxPoint x="450" y="50" as="targetPoint" />
          </mxGeometry>
        </mxCell>
        <mxCell id="OswK609bfgFUA2K_-Q1M-69" value="" style="endArrow=none;dashed=1;html=1;dashPattern=1 3;strokeWidth=2;rounded=0;fontStyle=0" edge="1" parent="1">
          <mxGeometry width="50" height="50" relative="1" as="geometry">
            <mxPoint x="300" y="230" as="sourcePoint" />
            <mxPoint x="300" y="190" as="targetPoint" />
          </mxGeometry>
        </mxCell>
        <mxCell id="OswK609bfgFUA2K_-Q1M-70" value="" style="endArrow=none;html=1;rounded=0;fontStyle=0" edge="1" parent="1">
          <mxGeometry width="50" height="50" relative="1" as="geometry">
            <mxPoint x="300" y="260" as="sourcePoint" />
            <mxPoint x="300" y="230" as="targetPoint" />
          </mxGeometry>
        </mxCell>
        <mxCell id="OswK609bfgFUA2K_-Q1M-71" value="" style="endArrow=none;html=1;rounded=0;fontStyle=0" edge="1" parent="1">
          <mxGeometry width="50" height="50" relative="1" as="geometry">
            <mxPoint x="300" y="200" as="sourcePoint" />
            <mxPoint x="300" y="180" as="targetPoint" />
          </mxGeometry>
        </mxCell>
        <mxCell id="OswK609bfgFUA2K_-Q1M-72" value="&lt;span&gt;clean_button_module&lt;/span&gt;" style="text;whiteSpace=wrap;html=1;fontStyle=1" vertex="1" parent="1">
          <mxGeometry x="460" y="355" width="120" height="20" as="geometry" />
        </mxCell>
        <mxCell id="OswK609bfgFUA2K_-Q1M-73" value="" style="triangle;whiteSpace=wrap;html=1;" vertex="1" parent="1">
          <mxGeometry x="390" y="40" width="20" height="20" as="geometry" />
        </mxCell>
        <mxCell id="OswK609bfgFUA2K_-Q1M-75" value="MUX" style="rounded=0;whiteSpace=wrap;html=1;fillColor=none;" vertex="1" parent="1">
          <mxGeometry x="480" y="130" width="80" height="120" as="geometry" />
        </mxCell>
        <mxCell id="OswK609bfgFUA2K_-Q1M-76" value="" style="endArrow=none;html=1;rounded=0;" edge="1" parent="1">
          <mxGeometry width="50" height="50" relative="1" as="geometry">
            <mxPoint x="410" y="270" as="sourcePoint" />
            <mxPoint x="520" y="270" as="targetPoint" />
          </mxGeometry>
        </mxCell>
        <mxCell id="OswK609bfgFUA2K_-Q1M-77" value="select" style="text;html=1;strokeColor=none;fillColor=none;align=center;verticalAlign=middle;whiteSpace=wrap;rounded=0;" vertex="1" parent="1">
          <mxGeometry x="490" y="230" width="60" height="20" as="geometry" />
        </mxCell>
        <mxCell id="OswK609bfgFUA2K_-Q1M-78" value="" style="endArrow=classic;html=1;rounded=0;" edge="1" parent="1">
          <mxGeometry width="50" height="50" relative="1" as="geometry">
            <mxPoint x="519.83" y="270" as="sourcePoint" />
            <mxPoint x="519.83" y="250" as="targetPoint" />
          </mxGeometry>
        </mxCell>
        <mxCell id="OswK609bfgFUA2K_-Q1M-79" value="" style="endArrow=classic;html=1;rounded=0;" edge="1" parent="1">
          <mxGeometry width="50" height="50" relative="1" as="geometry">
            <mxPoint x="560" y="189.82999999999998" as="sourcePoint" />
            <mxPoint x="590" y="189.82999999999998" as="targetPoint" />
          </mxGeometry>
        </mxCell>
      </root>
    </mxGraphModel>
  </diagram>
</mxfile>
